<svg width="1600" height="3000" viewBox="0 0 1600 3000" fill="none" xmlns="http://www.w3.org/2000/svg">
    <rect x="1968.24" y="1167.91" width="301.687" height="301.687" transform="rotate(150 1968.24 1167.91)" fill="#4E727C" fill-opacity="0.05"/>
    <rect x="1636.39" y="593.123" width="301.687" height="301.687" transform="rotate(150 1636.39 593.123)" fill="#4E727C" fill-opacity="0.05"/>
    <rect x="1846.78" y="1621.24" width="301.687" height="301.687" transform="rotate(150 1846.78 1621.24)" fill="#4E727C" fill-opacity="0.05"/>
    <rect x="1514.92" y="1046.45" width="301.687" height="301.687" transform="rotate(150 1514.92 1046.45)" fill="#4E727C" fill-opacity="0.05"/>
    <rect x="1923.78" y="427.196" width="301.687" height="301.687" transform="rotate(150 1923.78 427.196)" fill="#4E727C" fill-opacity="0.05"/>
    <rect x="1680.85" y="1333.84" width="301.687" height="301.687" transform="rotate(150 1680.85 1333.84)" fill="#00C6FD" fill-opacity="0.05"/>
    <rect x="1348.99" y="759.051" width="301.687" height="301.687" transform="rotate(150 1348.99 759.051)" fill="#4E727C" fill-opacity="0.05"/>
    <rect x="1559.38" y="1787.16" width="301.687" height="301.687" transform="rotate(150 1559.38 1787.16)" fill="#4E727C" fill-opacity="0.05"/>
    <rect x="1393.45" y="1499.77" width="301.687" height="301.687" transform="rotate(150 1393.45 1499.77)" fill="#4E727C" fill-opacity="0.05"/>
    <rect x="1061.6" y="924.979" width="301.687" height="301.687" transform="rotate(150 1061.6 924.979)" fill="#00C6FD" fill-opacity="0.05"/>
    <rect x="1600.38" y="2519.17" width="300" height="300" transform="rotate(150 1600.38 2519.17)" fill="#4E727C" fill-opacity="0.05"/>
    <rect x="1270.38" y="1947.6" width="300" height="300" transform="rotate(150 1270.38 1947.6)" fill="#4E727C" fill-opacity="0.05"/>
    <rect x="1841.96" y="1617.6" width="300" height="300" transform="rotate(150 1841.96 1617.6)" fill="#4E727C" fill-opacity="0.05"/>
    <rect x="2006.96" y="1903.38" width="300" height="300" transform="rotate(150 2006.96 1903.38)" fill="#4E727C" fill-opacity="0.05"/>
    <rect x="1676.96" y="1331.81" width="300" height="300" transform="rotate(150 1676.96 1331.81)" fill="#4E727C" fill-opacity="0.05"/>
    <rect x="1435.38" y="2233.38" width="300" height="300" transform="rotate(150 1435.38 2233.38)" fill="#4E727C" fill-opacity="0.05"/>
    <rect x="1105.38" y="1661.81" width="300" height="300" transform="rotate(150 1105.38 1661.81)" fill="#4E727C" fill-opacity="0.05"/>
    <rect x="1314.6" y="2684.17" width="300" height="300" transform="rotate(150 1314.6 2684.17)" fill="#4E727C" fill-opacity="0.05"/>
    <rect x="986.645" y="2113.14" width="303" height="303" transform="rotate(150 986.645 2113.14)" stroke="white" stroke-opacity="0.07" stroke-width="3"/>
    <rect x="1888.22" y="2354.72" width="303" height="303" transform="rotate(150 1888.22 2354.72)" stroke="white" stroke-opacity="0.07" stroke-width="3"/>
    <rect x="1556.17" y="1782.6" width="300" height="300" transform="rotate(150 1556.17 1782.6)" fill="#4E727C" fill-opacity="0.05"/>
    <rect x="1721.17" y="2068.38" width="300" height="300" transform="rotate(150 1721.17 2068.38)" fill="#4E727C" fill-opacity="0.05"/>
    <rect x="1391.17" y="1496.81" width="300" height="300" transform="rotate(150 1391.17 1496.81)" fill="#4E727C" fill-opacity="0.05"/>
    <rect x="1149.6" y="2398.38" width="300" height="300" transform="rotate(150 1149.6 2398.38)" fill="#4E727C" fill-opacity="0.05"/>
    <rect x="819.596" y="1826.81" width="300" height="300" transform="rotate(150 819.596 1826.81)" fill="#4E727C" fill-opacity="0.05"/>
    <rect x="1028.81" y="2849.17" width="300" height="300" transform="rotate(150 1028.81 2849.17)" fill="#4E727C" fill-opacity="0.05"/>
    <rect x="698.807" y="2277.6" width="300" height="300" transform="rotate(150 698.807 2277.6)" fill="#4E727C" fill-opacity="0.05"/>
    <rect x="863.807" y="2563.38" width="300" height="300" transform="rotate(150 863.807 2563.38)" fill="#4E727C" fill-opacity="0.05"/>
    <rect x="533.807" y="1991.81" width="300" height="300" transform="rotate(150 533.807 1991.81)" fill="#4E727C" fill-opacity="0.05"/>
    <rect x="368.385" y="1707.17" width="300" height="300" transform="rotate(150 368.385 1707.17)" fill="#4E727C" fill-opacity="0.05"/>
    <rect x="939.961" y="1377.17" width="300" height="300" transform="rotate(150 939.961 1377.17)" fill="#4E727C" fill-opacity="0.05"/>
    <rect x="609.961" y="805.596" width="300" height="300" transform="rotate(150 609.961 805.596)" fill="#4E727C" fill-opacity="0.05"/>
    <rect x="774.961" y="1091.38" width="300" height="300" transform="rotate(150 774.961 1091.38)" fill="#4E727C" fill-opacity="0.05"/>
    <rect x="444.961" y="519.807" width="300" height="300" transform="rotate(150 444.961 519.807)" fill="#4E727C" fill-opacity="0.05"/>
    <rect x="203.385" y="1421.38" width="300" height="300" transform="rotate(150 203.385 1421.38)" fill="#4E727C" fill-opacity="0.05"/>
    <rect x="82.5959" y="1872.17" width="300" height="300" transform="rotate(150 82.5959 1872.17)" fill="#4E727C" fill-opacity="0.05"/>
    <rect x="654.173" y="1542.17" width="300" height="300" transform="rotate(150 654.173 1542.17)" fill="#4E727C" fill-opacity="0.05"/>
    <rect x="324.173" y="970.596" width="300" height="300" transform="rotate(150 324.173 970.596)" fill="#4E727C" fill-opacity="0.05"/>
    <rect x="489.173" y="1256.38" width="300" height="300" transform="rotate(150 489.173 1256.38)" fill="#4E727C" fill-opacity="0.05"/>
    <rect x="159.173" y="684.807" width="300" height="300" transform="rotate(150 159.173 684.807)" fill="#4E727C" fill-opacity="0.05"/>
</svg>