<svg width="67" height="61" viewBox="0 0 67 61" fill="none" xmlns="http://www.w3.org/2000/svg">
<path d="M32.7015 0.701721C34.12 -0.0362658 35.8516 1.67575 35.0979 3.08971C34.6602 4.24231 33.0006 4.5488 32.1528 3.67023C31.2547 2.82705 31.5476 1.16049 32.7015 0.701721ZM17.444 2.34263C18.3057 1.98873 19.3966 2.7764 19.3087 3.71341C19.4001 4.73062 18.1534 5.47932 17.2751 4.99588C16.1114 4.5462 16.2445 2.66146 17.444 2.34263ZM48.6932 5.02445C47.3466 4.86211 47.1334 2.74977 48.4299 2.32445C49.4355 1.83516 50.358 2.7527 50.5051 3.70367C50.2943 4.51568 49.6128 5.25919 48.6932 5.02445ZM20.9156 8.82153C22.3563 7.91244 24.412 9.26633 24.1904 10.9358C24.1155 12.6215 21.8714 13.5982 20.6052 12.4585C19.3809 11.5634 19.5664 9.50984 20.9156 8.82153ZM42.9081 9.78614C43.5508 8.13354 46.1552 8.08354 46.8867 9.69231C47.6098 10.9443 46.7204 12.4946 45.4321 12.9202C43.7256 13.2381 42.1046 11.3975 42.9081 9.78614ZM30.8642 12.8264C30.8502 11.4059 32.147 10.3475 33.5001 10.2507C34.3976 10.4303 35.3758 10.8118 35.7608 11.7154C36.4784 12.9618 35.8412 14.678 34.5447 15.2501C33.9518 15.5816 33.2508 15.4572 32.6052 15.4186C31.6182 14.9352 30.787 13.9871 30.8642 12.8264ZM8.17399 14.8962C9.49001 14.0891 11.2655 15.5621 10.7673 16.9884C10.493 18.2222 8.8307 18.7241 7.88046 17.9365C6.86611 17.1985 7.02687 15.4241 8.17399 14.8962ZM56.8981 14.8936C58.0146 14.0287 59.8572 15.0209 59.7241 16.4274C59.7989 17.7098 58.206 18.677 57.0976 18.0167C55.8769 17.4693 55.7523 15.5956 56.8981 14.8936ZM37.2451 17.4472C39.0876 16.7868 41.2761 17.577 42.3262 19.216C43.7116 21.2196 42.9745 24.2709 40.8247 25.4206C38.5972 26.7803 35.3446 25.6277 34.5219 23.1459C33.588 20.9241 34.9486 18.1436 37.2451 17.4472ZM26.4345 17.6657C28.4765 16.704 31.2247 17.5108 32.2111 19.5949C33.3719 21.6235 32.4744 24.4482 30.3991 25.4956C28.3213 26.6728 25.3899 25.7803 24.3843 23.6024C23.2567 21.4962 24.2581 18.6355 26.4345 17.6657ZM15.6099 21.3579C15.7652 20.0452 17.0063 19.191 18.2586 19.1027C19.6078 19.265 20.6856 20.3105 20.8323 21.6728C20.7438 23.0215 19.6992 24.3397 18.2667 24.3316C16.6907 24.467 15.3089 22.9027 15.6099 21.3579ZM47.5822 19.3881C49.2002 18.4485 51.4469 19.8163 51.375 21.6709C51.486 23.6358 48.9994 25.0206 47.3882 23.868C45.7146 22.9082 45.8451 20.2053 47.5822 19.3881ZM22.0351 26.3134C23.9274 25.7939 26.0912 26.6839 27.0193 28.4193C28.0359 30.166 27.6203 32.5926 26.0414 33.8738C24.0163 35.753 20.2814 34.9985 19.2036 32.4339C17.965 30.0829 19.4695 26.9322 22.0351 26.3134ZM42.5397 26.3037C44.3793 25.7787 46.5405 26.4861 47.5294 28.1582C48.837 30.0706 48.2128 32.9228 46.2662 34.1556C44.227 35.5871 41.0685 34.8355 39.9464 32.5972C38.5862 30.2819 39.9549 27.0098 42.5397 26.3037ZM9.86392 28.4855C11.4985 27.8686 13.3105 29.6683 12.6482 31.2852C12.2437 32.7582 10.163 33.3027 9.08811 32.2167C7.83035 31.1969 8.29603 28.9277 9.86392 28.4855ZM54.1704 30.8319C54.1232 29.4806 55.1141 28.2839 56.503 28.2092C57.6225 28.3861 58.711 29.2871 58.6225 30.503C58.725 32.1089 56.7855 33.2004 55.4141 32.4459C54.7714 32.1199 54.4418 31.4621 54.1704 30.8319ZM1.8266 29.2787C2.81003 28.8504 4.02647 29.7008 3.80192 30.7904C3.74921 32.0241 1.92358 32.4985 1.25288 31.4676C0.660283 30.7517 1.01499 29.6478 1.8266 29.2787ZM63.8338 29.254C64.5263 28.7621 65.6373 29.1157 65.9117 29.9228C66.377 30.8043 65.5238 32.0121 64.5293 31.8631C63.1332 31.99 62.6815 29.8673 63.8338 29.254ZM27.3766 35.1764C29.9644 34.505 32.7461 36.6579 32.7624 39.3163C32.9313 42.0027 30.1915 44.3848 27.5426 43.7644C25.495 43.4355 23.8884 41.4676 23.9548 39.4033C23.9492 37.429 25.4426 35.5939 27.3766 35.1764ZM37.6248 35.1709C40.2513 34.4384 43.1161 36.63 43.0744 39.3498C43.213 41.9865 40.5589 44.2884 37.9652 43.7654C35.5246 43.4504 33.7237 40.7751 34.4051 38.4121C34.7491 36.8374 36.0677 35.5569 37.6248 35.1709ZM17.8654 36.8072C19.6829 36.4978 21.3869 38.5209 20.6498 40.2426C20.1122 42.0774 17.4359 42.5751 16.2526 41.0764C14.8647 39.6371 15.9009 37.0059 17.8654 36.8072ZM47.92 36.8881C49.5406 36.2108 51.5299 37.6095 51.4052 39.3644C51.4703 41.2962 49.0144 42.6283 47.4295 41.5007C45.6345 40.4884 45.9612 37.5092 47.92 36.8881ZM56.3204 45.2946C55.6859 44.1144 56.8385 42.5501 58.1519 42.7686C58.8057 42.7576 59.2629 43.2715 59.6814 43.7027C59.7673 44.4021 59.9115 45.2365 59.3296 45.7754C58.5395 46.7732 56.7497 46.4884 56.3204 45.2946ZM8.16846 43.0972C9.39596 42.2819 11.1624 43.4978 10.8864 44.9296C10.7396 46.1959 9.14083 46.9196 8.08776 46.2011C6.95756 45.5488 6.99921 43.6917 8.16846 43.0972ZM32.419 45.7478C34.026 45.0404 36.0732 46.4361 35.9209 48.202C36.04 50.1533 33.5079 51.5046 31.9368 50.3329C30.1915 49.3267 30.4824 46.3667 32.419 45.7478ZM21.187 48.3621C22.5558 47.6436 24.3925 48.8845 24.2678 50.4128C24.3095 51.6676 23.082 52.7371 21.8408 52.5517C20.8128 52.5296 20.1424 51.6102 19.8128 50.7358C19.8297 49.7829 20.2228 48.7215 21.187 48.3621ZM43.9387 48.3842C45.3462 47.5163 47.3466 48.7628 47.2135 50.3972C47.2496 52.1053 44.9889 53.1995 43.6784 52.0774C42.4096 51.1978 42.5645 49.0835 43.9387 48.3842ZM47.8952 58.143C47.2691 57.1978 48.0062 56.0592 49.0228 55.8436C49.8403 56.0095 50.7046 56.6228 50.5328 57.5683C50.4137 58.8478 48.5379 59.2404 47.8952 58.143ZM16.4882 57.3222C16.7375 56.5732 17.3415 55.8287 18.2254 56.0235C19.5137 56.1147 19.8961 58.0521 18.7685 58.6491C17.7545 59.3313 16.5781 58.3972 16.4882 57.3222ZM31.6403 58.1816C31.887 57.0735 33.3247 56.5345 34.2723 57.1232C34.8984 57.3913 35.0813 58.0904 35.2421 58.6845C35.1562 58.9939 35.0794 59.3037 35.0039 59.6131C34.616 60.0719 34.1174 60.5306 33.4718 60.5141C32.272 60.6543 31.1896 59.3011 31.6403 58.1816Z" fill="#3CC8C8"/>
</svg>
