<svg width="31" height="31" viewBox="0 0 31 31" fill="none" xmlns="http://www.w3.org/2000/svg">
<path d="M30.4306 7.3584L24.1936 13.5942L17.4064 6.8058L23.6416 0.57C22.5604 0.2058 21.4048 0 20.2 0C14.2354 0 9.39999 4.8354 9.39999 10.8C9.39999 12.0048 9.60579 13.1598 9.96939 14.2416L1.80639 22.4058C0.937594 23.2746 0.399994 24.4746 0.399994 25.8C0.399994 28.4508 2.54919 30.6 5.19999 30.6C6.52539 30.6 7.72539 30.0624 8.59359 29.1942L16.7584 21.03C17.8396 21.3942 18.9952 21.6 20.2 21.6C26.1646 21.6 31 16.7646 31 10.8C31 9.5952 30.7942 8.4402 30.4306 7.3584Z" fill="white"/>
</svg>
