<svg width="239" height="86" viewBox="0 0 239 86" fill="none" xmlns="http://www.w3.org/2000/svg">
<g opacity="0.7">
<g filter="url(#filter0_d_208_138)">
<path d="M202.937 38.7578C181.804 78.5369 164.401 38.7578 153.213 49.3241C138.017 63.6758 134.064 38.7578 122.136 38.7578C110.207 38.7578 107.218 63.6198 92.3012 63.6198C74.3538 63.6198 78.0831 43.7302 64.9531 43.7302C58.0954 43.7302 53.7652 63.6198 40.0911 63.6198C26.417 63.6198 30.1463 35.0285 11.4998 35.0285" stroke="url(#paint0_linear_208_138)" stroke-width="3" stroke-linecap="round" stroke-linejoin="round"/>
</g>
<g filter="url(#filter1_f_208_138)">
<ellipse cx="202.926" cy="35.3516" rx="14.3461" ry="12.431" transform="rotate(29 202.926 35.3516)" fill="url(#paint1_linear_208_138)"/>
</g>
</g>
<defs>
<filter id="filter0_d_208_138" x="-0.000167847" y="33.5285" width="214.437" height="51.5912" filterUnits="userSpaceOnUse" color-interpolation-filters="sRGB">
<feFlood flood-opacity="0" result="BackgroundImageFix"/>
<feColorMatrix in="SourceAlpha" type="matrix" values="0 0 0 0 0 0 0 0 0 0 0 0 0 0 0 0 0 0 127 0" result="hardAlpha"/>
<feOffset dy="10"/>
<feGaussianBlur stdDeviation="5"/>
<feColorMatrix type="matrix" values="0 0 0 0 0.0456816 0 0 0 0 0.0410428 0 0 0 0 0.12686 0 0 0 0.54362 0"/>
<feBlend mode="normal" in2="BackgroundImageFix" result="effect1_dropShadow_208_138"/>
<feBlend mode="normal" in="SourceGraphic" in2="effect1_dropShadow_208_138" result="shape"/>
</filter>
<filter id="filter1_f_208_138" x="167.003" y="0.443359" width="71.8458" height="69.8165" filterUnits="userSpaceOnUse" color-interpolation-filters="sRGB">
<feFlood flood-opacity="0" result="BackgroundImageFix"/>
<feBlend mode="normal" in="SourceGraphic" in2="BackgroundImageFix" result="shape"/>
<feGaussianBlur stdDeviation="11" result="effect1_foregroundBlur_208_138"/>
</filter>
<linearGradient id="paint0_linear_208_138" x1="84.701" y1="27.4588" x2="95.8473" y2="84.5336" gradientUnits="userSpaceOnUse">
<stop stop-color="#A330FF" stop-opacity="0.01"/>
<stop offset="0.393247" stop-color="#BC3DCB"/>
<stop offset="1" stop-color="#E3507A"/>
</linearGradient>
<linearGradient id="paint1_linear_208_138" x1="202.323" y1="51.1796" x2="204.303" y2="33.875" gradientUnits="userSpaceOnUse">
<stop stop-color="#FF62B8" stop-opacity="0.01"/>
<stop offset="0.924507" stop-color="#FE33D1"/>
</linearGradient>
</defs>
</svg>
