<svg width="36" height="36" viewBox="0 0 36 36" fill="none" xmlns="http://www.w3.org/2000/svg">
<path d="M30.6 7.2C30.4344 7.2 30.2844 7.2672 30.1758 7.3758L28.7112 8.8404C26.1672 5.3124 21.9162 3 17.1 3C9.7536 3 3.663 8.3796 3.0042 15.2484C3.0012 15.2778 3 15.3072 3 15.3354C3 15.8226 3.3852 16.2 3.867 16.2C4.2012 16.2 4.4976 16.0026 4.6464 15.7032C6.4416 12.0912 10.2996 9.6 14.7 9.6C18.3444 9.6 21.579 11.31 23.6028 13.9488L21.7758 15.7758C21.6666 15.8844 21.6 16.0344 21.6 16.2C21.6 16.5318 21.8682 16.8 22.2 16.8H30.6C30.9318 16.8 31.2 16.5318 31.2 16.2V7.8C31.2 7.4682 30.9318 7.2 30.6 7.2Z" fill="white"/>
<path d="M32.133 19.8C31.7988 19.8 31.5024 19.9974 31.3536 20.2968C29.5584 23.9088 25.7004 26.4 21.3 26.4C17.6556 26.4 14.421 24.69 12.3972 22.0512L14.2242 20.2242C14.3334 20.1156 14.4 19.9656 14.4 19.8C14.4 19.4682 14.1318 19.2 13.8 19.2H5.39999C5.06819 19.2 4.79999 19.4682 4.79999 19.8V28.2C4.79999 28.5318 5.06819 28.8 5.39999 28.8C5.56559 28.8 5.71559 28.7328 5.82419 28.6242L7.28879 27.1596C9.83279 30.6876 14.0838 33 18.9 33C26.2464 33 32.337 27.6204 32.9958 20.7516C32.9988 20.7222 33 20.6928 33 20.6646C33 20.1774 32.6148 19.8 32.133 19.8Z" fill="white"/>
</svg>
